<?xml version="1.0" encoding="UTF-8"?>
<svg version="1.1" xmlns="http://www.w3.org/2000/svg" width="161" height="162">
<path d="M0 0 C16.83 0 33.66 0 51 0 C51.495 4.95 51.495 4.95 52 10 C58.6 10.33 65.2 10.66 72 11 C72 14.3 72 17.6 72 21 C75.3 21 78.6 21 82 21 C82 24.3 82 27.6 82 31 C85.3 31 88.6 31 92 31 C92.90238747 33.70716242 93.11851302 35.23776768 93.09765625 38.01171875 C93.09443359 38.76904297 93.09121094 39.52636719 93.08789062 40.30664062 C93.07951172 41.09232422 93.07113281 41.87800781 93.0625 42.6875 C93.05798828 43.48478516 93.05347656 44.28207031 93.04882812 45.10351562 C93.0370585 47.06904257 93.01912348 49.03453085 93 51 C96.3 51.33 99.6 51.66 103 52 C103 68.83 103 85.66 103 103 C99.7 103 96.4 103 93 103 C93 109.93 93 116.86 93 124 C89.7 124 86.4 124 83 124 C83 127.3 83 130.6 83 134 C79.7 134.33 76.4 134.66 73 135 C72.67 138.3 72.34 141.6 72 145 C65.07 145 58.14 145 51 145 C51 148.63 51 152.26 51 156 C34.17 156 17.34 156 0 156 C-0.33 152.37 -0.66 148.74 -1 145 C-2.35996094 145.01160156 -3.71992187 145.02320313 -5.12109375 145.03515625 C-6.8932278 145.04453262 -8.66536333 145.05363298 -10.4375 145.0625 C-11.33533203 145.07087891 -12.23316406 145.07925781 -13.15820312 145.08789062 C-14.01220703 145.09111328 -14.86621094 145.09433594 -15.74609375 145.09765625 C-16.53685303 145.10289307 -17.3276123 145.10812988 -18.14233398 145.11352539 C-20 145 -20 145 -21 144 C-21.14193337 140.99668982 -21.04236378 138.00782866 -21 135 C-24.3 135 -27.6 135 -31 135 C-31.33 132.03 -31.66 129.06 -32 126 C-35.3 125.34 -38.6 124.68 -42 124 C-42 117.4 -42 110.8 -42 104 C-45.3 104 -48.6 104 -52 104 C-52.02464113 96.75512951 -52.0428318 89.51028318 -52.05493164 82.26538086 C-52.05997356 79.79857967 -52.06680691 77.33178148 -52.07543945 74.86499023 C-52.08751125 71.32795471 -52.09322956 67.79095855 -52.09765625 64.25390625 C-52.10281754 63.14350479 -52.10797882 62.03310333 -52.11329651 60.88905334 C-52.11337204 59.86807053 -52.11344757 58.84708771 -52.11352539 57.79516602 C-52.115746 56.89137711 -52.11796661 55.9875882 -52.12025452 55.05641174 C-52 53 -52 53 -51 52 C-48.36 51.67 -45.72 51.34 -43 51 C-42.67 44.4 -42.34 37.8 -42 31 C-38.7 31 -35.4 31 -32 31 C-32 27.7 -32 24.4 -32 21 C-28.37 21 -24.74 21 -21 21 C-21 17.7 -21 14.4 -21 11 C-14.4 11 -7.8 11 -1 11 C-0.67 7.37 -0.34 3.74 0 0 Z " fill="#402D50" transform="translate(56,5)"/>
<path d="M0 0 C16.83 0 33.66 0 51 0 C51.495 4.95 51.495 4.95 52 10 C58.6 10.33 65.2 10.66 72 11 C72 14.3 72 17.6 72 21 C75.3 21 78.6 21 82 21 C82 24.3 82 27.6 82 31 C85.3 31 88.6 31 92 31 C92.90238747 33.70716242 93.11851302 35.23776768 93.09765625 38.01171875 C93.09443359 38.76904297 93.09121094 39.52636719 93.08789062 40.30664062 C93.07951172 41.09232422 93.07113281 41.87800781 93.0625 42.6875 C93.05798828 43.48478516 93.05347656 44.28207031 93.04882812 45.10351562 C93.0370585 47.06904257 93.01912348 49.03453085 93 51 C96.3 51.33 99.6 51.66 103 52 C103 68.83 103 85.66 103 103 C99.7 103 96.4 103 93 103 C93 102.67 93 102.34 93 102 C95.97 102 98.94 102 102 102 C102 95.73 102 89.46 102 83 C99.03 83 96.06 83 93 83 C93 86.3 93 89.6 93 93 C90.03 93 87.06 93 84 93 C83.67 96.63 83.34 100.26 83 104 C79.7 104 76.4 104 73 104 C73 107.3 73 110.6 73 114 C69.37 114 65.74 114 62 114 C62 117.63 62 121.26 62 125 C55.07 125 48.14 125 41 125 C41 121.37 41 117.74 41 114 C44.63 114 48.26 114 52 114 C52 110.7 52 107.4 52 104 C55.3 104 58.6 104 62 104 C62 100.7 62 97.4 62 94 C71.9 93.505 71.9 93.505 82 93 C82.020625 90.050625 82.04125 87.10125 82.0625 84.0625 C82.071604 83.13187744 82.08070801 82.20125488 82.09008789 81.24243164 C82.09258545 80.51403076 82.09508301 79.78562988 82.09765625 79.03515625 C82.10289307 78.2862915 82.10812988 77.53742676 82.11352539 76.76586914 C82.19341752 74.97332261 82.19341752 74.97332261 81 74 C79.59802598 73.85578846 78.18957169 73.77313876 76.78125 73.71875 C75.93175781 73.68136719 75.08226562 73.64398438 74.20703125 73.60546875 C73.31371094 73.57066406 72.42039062 73.53585938 71.5 73.5 C69.73940962 73.43140557 67.97897259 73.35871048 66.21875 73.28125 C65.0421582 73.23581055 65.0421582 73.23581055 63.84179688 73.18945312 C62 73 62 73 61 72 C61 69.03 61 66.06 61 63 C54.4 63 47.8 63 41 63 C41 55.74 41 48.48 41 41 C37.7 41 34.4 41 31 41 C31 34.4 31 27.8 31 21 C27.37 21 23.74 21 20 21 C20 27.6 20 34.2 20 41 C15.545 41.495 15.545 41.495 11 42 C10.67 48.27 10.34 54.54 10 61 C7.65147472 62.17426264 6.26225935 62.11508173 3.6484375 62.09765625 C2.37226562 62.09282227 2.37226562 62.09282227 1.0703125 62.08789062 C0.18085937 62.07951172 -0.70859375 62.07113281 -1.625 62.0625 C-2.97078125 62.05573242 -2.97078125 62.05573242 -4.34375 62.04882812 C-6.56252831 62.03702611 -8.78127243 62.01909039 -11 62 C-11 65.3 -11 68.6 -11 72 C-21.395 72.495 -21.395 72.495 -32 73 C-31.96041741 79.5370285 -31.96041741 79.5370285 -31.90991211 86.07397461 C-31.90741455 86.88358643 -31.90491699 87.69319824 -31.90234375 88.52734375 C-31.89448853 89.77632446 -31.89448853 89.77632446 -31.88647461 91.05053711 C-32 93 -32 93 -33 94 C-36.33618231 94.14257189 -39.65975606 94.04228157 -43 94 C-43 90.7 -43 87.4 -43 84 C-45.64 84 -48.28 84 -51 84 C-51 89.61 -51 95.22 -51 101 C-51.33 101 -51.66 101 -52 101 C-52.0252689 94.18238106 -52.04283244 87.36477411 -52.05493164 80.54711914 C-52.05997333 78.22582549 -52.06680651 75.90453503 -52.07543945 73.58325195 C-52.08751225 70.25471205 -52.09322979 66.92621398 -52.09765625 63.59765625 C-52.10281754 62.55287613 -52.10797882 61.50809601 -52.11329651 60.43165588 C-52.11337204 59.47073532 -52.11344757 58.50981476 -52.11352539 57.51977539 C-52.115746 56.66928116 -52.11796661 55.81878693 -52.12025452 54.94252014 C-52 53 -52 53 -51 52 C-48.36 51.67 -45.72 51.34 -43 51 C-42.67 44.4 -42.34 37.8 -42 31 C-38.7 31 -35.4 31 -32 31 C-32 27.7 -32 24.4 -32 21 C-28.37 21 -24.74 21 -21 21 C-21 17.7 -21 14.4 -21 11 C-14.4 11 -7.8 11 -1 11 C-0.67 7.37 -0.34 3.74 0 0 Z " fill="#543D6A" transform="translate(56,5)"/>
<path d="M0 0 C3.63 0 7.26 0 11 0 C11 6.6 11 13.2 11 20 C14.3 20 17.6 20 21 20 C21 27.26 21 34.52 21 42 C27.6 42 34.2 42 41 42 C41.495 46.455 41.495 46.455 42 51 C44.02253906 51.07347656 44.02253906 51.07347656 46.0859375 51.1484375 C47.84897959 51.22346057 49.61199939 51.29900859 51.375 51.375 C52.26445312 51.4059375 53.15390625 51.436875 54.0703125 51.46875 C54.92109375 51.50742188 55.771875 51.54609375 56.6484375 51.5859375 C57.43395996 51.6173584 58.21948242 51.6487793 59.02880859 51.68115234 C61 52 61 52 63 54 C63 56.64 63 59.28 63 62 C53.1 62.495 53.1 62.495 43 63 C42.67 65.97 42.34 68.94 42 72 C35.07 72 28.14 72 21 72 C21.03958259 78.5370285 21.03958259 78.5370285 21.09008789 85.07397461 C21.09258545 85.88358643 21.09508301 86.69319824 21.09765625 87.52734375 C21.10289307 88.35999756 21.10812988 89.19265137 21.11352539 90.05053711 C21 92 21 92 20 93 C17.03 93 14.06 93 11 93 C11 99.93 11 106.86 11 114 C7.7 114 4.4 114 1 114 C0.67 107.4 0.34 100.8 0 94 C-3.3 93.67 -6.6 93.34 -10 93 C-10 86.07 -10 79.14 -10 72 C-16.93 72 -23.86 72 -31 72 C-31 68.7 -31 65.4 -31 62 C-37.93 62 -44.86 62 -52 62 C-53.62651522 58.74696956 -53.11453156 55.60774398 -53 52 C-52 51 -52 51 -49.95874023 50.88647461 C-48.64691772 50.89432983 -48.64691772 50.89432983 -47.30859375 50.90234375 C-46.36435547 50.90556641 -45.42011719 50.90878906 -44.44726562 50.91210938 C-43.45404297 50.92048828 -42.46082031 50.92886719 -41.4375 50.9375 C-40.44041016 50.94201172 -39.44332031 50.94652344 -38.41601562 50.95117188 C-35.94398513 50.96299977 -33.47198528 50.98093585 -31 51 C-31 47.7 -31 44.4 -31 41 C-20.605 40.505 -20.605 40.505 -10 40 C-10.03958027 33.79207086 -10.03958027 33.79207086 -10.09008789 27.58422852 C-10.09258545 26.81522217 -10.09508301 26.04621582 -10.09765625 25.25390625 C-10.10289307 24.46314697 -10.10812988 23.6723877 -10.11352539 22.85766602 C-10 21 -10 21 -9 20 C-6.03 20 -3.06 20 0 20 C0 13.4 0 6.8 0 0 Z " fill="#B61A1F" transform="translate(76,26)"/>
<path d="M0 0 C2.97 0 5.94 0 9 0 C9 3.3 9 6.6 9 10 C12.3 10 15.6 10 19 10 C19.33 16.6 19.66 23.2 20 30 C26.6 30.33 33.2 30.66 40 31 C40.495 35.95 40.495 35.95 41 41 C42.918125 40.9690625 42.918125 40.9690625 44.875 40.9375 C48.75 40.875 48.75 40.875 51 42 C51 44.64 51 47.28 51 50 C44.73 50 38.46 50 32 50 C31.67 47.36 31.34 44.72 31 42 C28.70691037 40.85345518 27.20090344 40.80270883 24.6484375 40.68359375 C23.88192871 40.64548584 23.11541992 40.60737793 22.32568359 40.56811523 C21.35195801 40.52501221 20.37823242 40.48190918 19.375 40.4375 C16.28125 40.293125 13.1875 40.14875 10 40 C9.67 33.4 9.34 26.8 9 20 C6.03 19.67 3.06 19.34 0 19 C0 12.73 0 6.46 0 0 Z " fill="#5A4A7C" transform="translate(88,26)"/>
<path d="M0 0 C2.97 0 5.94 0 9 0 C9 6.6 9 13.2 9 20 C5.37 20.33 1.74 20.66 -2 21 C-2 27.27 -2 33.54 -2 40 C-8.27 40 -14.54 40 -21 40 C-21.33 43.63 -21.66 47.26 -22 51 C-28.6 51 -35.2 51 -42 51 C-42 48.03 -42 45.06 -42 42 C-38.7 42 -35.4 42 -32 42 C-32 38.7 -32 35.4 -32 32 C-21.605 31.505 -21.605 31.505 -11 31 C-10.67 24.4 -10.34 17.8 -10 11 C-6.7 11 -3.4 11 0 11 C0 7.37 0 3.74 0 0 Z " fill="#594A7C" transform="translate(66,25)"/>
<path d="M0 0 C3.14588944 -0.02683697 6.29155271 -0.04675902 9.4375 -0.0625 C10.33533203 -0.07087891 11.23316406 -0.07925781 12.15820312 -0.08789062 C13.01220703 -0.09111328 13.86621094 -0.09433594 14.74609375 -0.09765625 C15.93223267 -0.10551147 15.93223267 -0.10551147 17.14233398 -0.11352539 C19 0 19 0 20 1 C20.14193337 4.00331018 20.04236378 6.99217134 20 10 C23.3 10 26.6 10 30 10 C30 13.3 30 16.6 30 20 C31.629375 19.979375 33.25875 19.95875 34.9375 19.9375 C36.62499341 19.91613932 38.31391034 19.92794489 40 20 C42.60341656 22.60341656 41 27.31821299 41 31 C34.07 31 27.14 31 20 31 C20 27.37 20 23.74 20 20 C17.5559375 20.0309375 17.5559375 20.0309375 15.0625 20.0625 C13.37500659 20.08386068 11.68608966 20.07205511 10 20 C9 19 9 19 8.90234375 16.93359375 C8.95117188 13.46679688 8.95117188 13.46679688 9 10 C6.03 10 3.06 10 0 10 C0 6.7 0 3.4 0 0 Z " fill="#4F3966" transform="translate(25,99)"/>
<path d="M0 0 C0.83265381 0.00523682 1.66530762 0.01047363 2.52319336 0.01586914 C3.42231445 0.0190918 4.32143555 0.02231445 5.24780273 0.02563477 C6.66609375 0.03820312 6.66609375 0.03820312 8.11303711 0.05102539 C9.06243164 0.05553711 10.01182617 0.06004883 10.98999023 0.06469727 C13.34356776 0.07652429 15.69702188 0.09300514 18.05053711 0.11352539 C18.07741862 1.75927105 18.09687834 3.40513952 18.11303711 5.05102539 C18.12463867 5.96754883 18.13624023 6.88407227 18.14819336 7.82836914 C18.05053711 10.11352539 18.05053711 10.11352539 17.05053711 11.11352539 C15.56181851 11.20021971 14.06909211 11.22056033 12.57788086 11.21118164 C11.67875977 11.20795898 10.77963867 11.20473633 9.85327148 11.20141602 C8.90774414 11.19303711 7.9622168 11.1846582 6.98803711 11.17602539 C6.03864258 11.17151367 5.08924805 11.16700195 4.11108398 11.16235352 C1.7575418 11.15052667 -0.59596821 11.1325906 -2.94946289 11.11352539 C-2.94946289 14.41352539 -2.94946289 17.71352539 -2.94946289 21.11352539 C-6.24946289 21.11352539 -9.54946289 21.11352539 -12.94946289 21.11352539 C-12.94946289 24.41352539 -12.94946289 27.71352539 -12.94946289 31.11352539 C-19.74581015 31.80176309 -26.06480956 32.11352539 -32.94946289 32.11352539 C-32.94946289 38.71352539 -32.94946289 45.31352539 -32.94946289 52.11352539 C-33.27946289 52.11352539 -33.60946289 52.11352539 -33.94946289 52.11352539 C-33.94946289 45.18352539 -33.94946289 38.25352539 -33.94946289 31.11352539 C-30.97946289 30.78352539 -28.00946289 30.45352539 -24.94946289 30.11352539 C-24.61946289 23.51352539 -24.28946289 16.91352539 -23.94946289 10.11352539 C-17.01946289 10.11352539 -10.08946289 10.11352539 -2.94946289 10.11352539 C-2.94946289 7.14352539 -2.94946289 4.17352539 -2.94946289 1.11352539 C-1.94946289 0.11352539 -1.94946289 0.11352539 0 0 Z " fill="#59233E" transform="translate(120.949462890625,87.886474609375)"/>
<path d="M0 0 C6.93 0 13.86 0 21 0 C21 6.93 21 13.86 21 21 C24.3 21 27.6 21 31 21 C32 22 32 22 32.11352539 23.94946289 C32.10828857 24.7821167 32.10305176 25.61477051 32.09765625 26.47265625 C32.09443359 27.37177734 32.09121094 28.27089844 32.08789062 29.19726562 C32.07532227 30.61555664 32.07532227 30.61555664 32.0625 32.0625 C32.05798828 33.01189453 32.05347656 33.96128906 32.04882812 34.93945312 C32.03700128 37.29299531 32.01906521 39.64650532 32 42 C35.3 42 38.6 42 42 42 C42 42.33 42 42.66 42 43 C40.18757948 43.02687279 38.37504767 43.04633715 36.5625 43.0625 C35.55316406 43.07410156 34.54382813 43.08570313 33.50390625 43.09765625 C31 43 31 43 30 42 C29.91330568 40.5112814 29.89296506 39.018555 29.90234375 37.52734375 C29.90556641 36.62822266 29.90878906 35.72910156 29.91210938 34.80273438 C29.92048828 33.85720703 29.92886719 32.91167969 29.9375 31.9375 C29.94201172 30.98810547 29.94652344 30.03871094 29.95117188 29.06054688 C29.9629989 26.70696935 29.97947975 24.35351523 30 22 C29.34338379 22.00580078 28.68676758 22.01160156 28.01025391 22.01757812 C23.430986 22.04112624 18.93115203 22.02070309 14.375 21.5 C12.209375 21.2525 12.209375 21.2525 10 21 C10 17.7 10 14.4 10 11 C6.7 11 3.4 11 0 11 C0 7.37 0 3.74 0 0 Z " fill="#4D2847" transform="translate(45,98)"/>
<path d="M0 0 C6.6 0 13.2 0 20 0 C20.33 2.97 20.66 5.94 21 9 C27.27 9.33 33.54 9.66 40 10 C40.495 13.465 40.495 13.465 41 17 C39 19 39 19 37.12060547 19.22705078 C36.37697754 19.21657715 35.63334961 19.20610352 34.8671875 19.1953125 C34.06152344 19.18886719 33.25585938 19.18242188 32.42578125 19.17578125 C31.58402344 19.15902344 30.74226563 19.14226562 29.875 19.125 C28.60076172 19.11146484 28.60076172 19.11146484 27.30078125 19.09765625 C25.20040116 19.07405647 23.10016556 19.03818483 21 19 C20.67 16.36 20.34 13.72 20 11 C13.4 10.67 6.8 10.34 0 10 C0 6.7 0 3.4 0 0 Z " fill="#D8272E" transform="translate(97,68)"/>
<path d="M0 0 C3.02093215 3.02093215 2.46676834 6.56372072 2.625 10.625 C2.66367188 11.42679688 2.70234375 12.22859375 2.7421875 13.0546875 C2.83653931 15.03607556 2.91936215 17.01800645 3 19 C6.465 18.505 6.465 18.505 10 18 C10.33 18.66 10.66 19.32 11 20 C17.27 20 23.54 20 30 20 C30 20.33 30 20.66 30 21 C27.03 21 24.06 21 21 21 C21 27.93 21 34.86 21 42 C17.7 42 14.4 42 11 42 C10.67 35.4 10.34 28.8 10 22 C6.7 21.67 3.4 21.34 0 21 C0 14.07 0 7.14 0 0 Z " fill="#B62529" transform="translate(66,98)"/>
<path d="M0 0 C0.87454834 0.00523682 1.74909668 0.01047363 2.65014648 0.01586914 C3.59438477 0.0190918 4.53862305 0.02231445 5.51147461 0.02563477 C6.50469727 0.03401367 7.49791992 0.04239258 8.52124023 0.05102539 C9.51833008 0.05553711 10.51541992 0.06004883 11.54272461 0.06469727 C14.0147551 0.07652516 16.48675496 0.09446124 18.95874023 0.11352539 C18.95874023 3.74352539 18.95874023 7.37352539 18.95874023 11.11352539 C12.02874023 11.11352539 5.09874023 11.11352539 -2.04125977 11.11352539 C-3.66777498 7.86049495 -3.15579132 4.72126937 -3.04125977 1.11352539 C-2.04125977 0.11352539 -2.04125977 0.11352539 0 0 Z " fill="#BE2427" transform="translate(26.041259765625,76.886474609375)"/>
<path d="M0 0 C0 2.97 0 5.94 0 9 C-3.3 9 -6.6 9 -10 9 C-10 12.3 -10 15.6 -10 19 C-13.3 19 -16.6 19 -20 19 C-19.88597936 16.72858891 -19.75841495 14.45785448 -19.625 12.1875 C-19.55539063 10.92292969 -19.48578125 9.65835938 -19.4140625 8.35546875 C-19 5 -19 5 -17 2 C-14.44774272 1.4526696 -12.08108782 1.07543325 -9.5 0.8125 C-8.81035156 0.73064453 -8.12070313 0.64878906 -7.41015625 0.56445312 C-4.935769 0.27746279 -2.49317478 0 0 0 Z " fill="#3D294D" transform="translate(118,100)"/>
<path d="M0 0 C6.93 0 13.86 0 21 0 C21 3.3 21 6.6 21 10 C14.4 10 7.8 10 1 10 C0.67 6.7 0.34 3.4 0 0 Z " fill="#3D294B" transform="translate(24,88)"/>
<path d="M0 0 C2.97 0 5.94 0 9 0 C9.02683697 3.14588944 9.04675902 6.29155271 9.0625 9.4375 C9.07087891 10.33533203 9.07925781 11.23316406 9.08789062 12.15820312 C9.09111328 13.01220703 9.09433594 13.86621094 9.09765625 14.74609375 C9.10289307 15.53685303 9.10812988 16.3276123 9.11352539 17.14233398 C9 19 9 19 8 20 C5.36 20 2.72 20 0 20 C0 13.4 0 6.8 0 0 Z " fill="#DB272C" transform="translate(87,47)"/>
<path d="M0 0 C6.27 0 12.54 0 19 0 C19 2.64 19 5.28 19 8 C18 9 18 9 16.14233398 9.11352539 C15.35157471 9.10828857 14.56081543 9.10305176 13.74609375 9.09765625 C12.89208984 9.09443359 12.03808594 9.09121094 11.15820312 9.08789062 C10.26037109 9.07951172 9.36253906 9.07113281 8.4375 9.0625 C7.53580078 9.05798828 6.63410156 9.05347656 5.70507812 9.04882812 C3.47002411 9.03700244 1.23500398 9.01906638 -1 9 C-0.67 6.03 -0.34 3.06 0 0 Z " fill="#3F294E" transform="translate(120,90)"/>
<path d="M0 0 C2.31 0 4.62 0 7 0 C8.25433458 3.76300374 8.10695422 7.27210909 8.0625 11.1875 C8.05798828 11.93708984 8.05347656 12.68667969 8.04882812 13.45898438 C8.03706354 15.30602383 8.01912865 17.15302213 8 19 C5.36 19 2.72 19 0 19 C0 12.73 0 6.46 0 0 Z " fill="#DC272C" transform="translate(78,27)"/>
<path d="M0 0 C3.63 0 7.26 0 11 0 C11 6.6 11 13.2 11 20 C10.67 20 10.34 20 10 20 C9.67 13.73 9.34 7.46 9 1 C6.69 1 4.38 1 2 1 C2.01571045 1.84763916 2.01571045 1.84763916 2.03173828 2.71240234 C2.07324788 5.26655653 2.0993096 7.82063982 2.125 10.375 C2.14175781 11.26445313 2.15851563 12.15390625 2.17578125 13.0703125 C2.18544922 14.34648438 2.18544922 14.34648438 2.1953125 15.6484375 C2.21102295 16.82672119 2.21102295 16.82672119 2.22705078 18.02880859 C2 20 2 20 0 22 C-1.7634375 22.2475 -1.7634375 22.2475 -3.5625 22.5 C-5.2640625 22.7475 -5.2640625 22.7475 -7 23 C-8.83435809 26.66871618 -8.37336838 31.25273709 -8.51757812 35.32226562 C-8.60890568 37.21946625 -8.79713434 39.11146711 -9 41 C-11.40059817 42.20029908 -12.89360649 42.11459743 -15.5703125 42.09765625 C-16.46621094 42.09443359 -17.36210938 42.09121094 -18.28515625 42.08789062 C-19.69087891 42.07532227 -19.69087891 42.07532227 -21.125 42.0625 C-22.06988281 42.05798828 -23.01476563 42.05347656 -23.98828125 42.04882812 C-26.32558387 42.03702357 -28.66276061 42.02055759 -31 42 C-31 41.67 -31 41.34 -31 41 C-20.605 40.505 -20.605 40.505 -10 40 C-10.03958027 33.79207086 -10.03958027 33.79207086 -10.09008789 27.58422852 C-10.09258545 26.81522217 -10.09508301 26.04621582 -10.09765625 25.25390625 C-10.10551147 24.06776733 -10.10551147 24.06776733 -10.11352539 22.85766602 C-10 21 -10 21 -9 20 C-6.03 20 -3.06 20 0 20 C0 13.4 0 6.8 0 0 Z " fill="#A62B40" transform="translate(76,26)"/>
<path d="M0 0 C3.63 0 7.26 0 11 0 C11 2.97 11 5.94 11 9 C7.37 9.33 3.74 9.66 0 10 C0 6.7 0 3.4 0 0 Z " fill="#594879" transform="translate(76,15)"/>
<path d="M0 0 C0.87454834 0.00523682 1.74909668 0.01047363 2.65014648 0.01586914 C3.59438477 0.0190918 4.53862305 0.02231445 5.51147461 0.02563477 C6.50469727 0.03401367 7.49791992 0.04239258 8.52124023 0.05102539 C9.51833008 0.05553711 10.51541992 0.06004883 11.54272461 0.06469727 C14.01478872 0.07652532 16.48673541 0.0930069 18.95874023 0.11352539 C18.95874023 0.77352539 18.95874023 1.43352539 18.95874023 2.11352539 C12.68874023 2.11352539 6.41874023 2.11352539 -0.04125977 2.11352539 C-0.04125977 4.75352539 -0.04125977 7.39352539 -0.04125977 10.11352539 C6.22874023 10.11352539 12.49874023 10.11352539 18.95874023 10.11352539 C18.95874023 10.44352539 18.95874023 10.77352539 18.95874023 11.11352539 C12.02874023 11.11352539 5.09874023 11.11352539 -2.04125977 11.11352539 C-3.66777498 7.86049495 -3.15579132 4.72126937 -3.04125977 1.11352539 C-2.04125977 0.11352539 -2.04125977 0.11352539 0 0 Z " fill="#972D41" transform="translate(26.041259765625,76.886474609375)"/>
<path d="M0 0 C6.93 0 13.86 0 21 0 C21 3.3 21 6.6 21 10 C20.67 9.34 20.34 8.68 20 8 C19.01 8 18.02 8 17 8 C17.66 6.35 18.32 4.7 19 3 C9.595 3.495 9.595 3.495 0 4 C0 2.68 0 1.36 0 0 Z " fill="#542444" transform="translate(24,88)"/>
<path d="M0 0 C3.02093215 3.02093215 2.46676834 6.56372072 2.625 10.625 C2.66367188 11.42679688 2.70234375 12.22859375 2.7421875 13.0546875 C2.83653931 15.03607556 2.91936215 17.01800645 3 19 C6.465 18.505 6.465 18.505 10 18 C10.33 19.32 10.66 20.64 11 22 C7.37 21.67 3.74 21.34 0 21 C0 14.07 0 7.14 0 0 Z " fill="#AB2933" transform="translate(66,98)"/>
<path d="M0 0 C6.6 0 13.2 0 20 0 C20 6.6 20 13.2 20 20 C19.67 20 19.34 20 19 20 C19 14.39 19 8.78 19 3 C13.86996208 2.75087852 13.86996208 2.75087852 8.73901367 2.52197266 C5.03041921 2.31632735 3.14766544 2.09844363 0 0 Z " fill="#4A2341" transform="translate(45,99)"/>
<path d="M0 0 C0.83265381 0.00523682 1.66530762 0.01047363 2.52319336 0.01586914 C3.42231445 0.0190918 4.32143555 0.02231445 5.24780273 0.02563477 C6.66609375 0.03820312 6.66609375 0.03820312 8.11303711 0.05102539 C9.06243164 0.05553711 10.01182617 0.06004883 10.98999023 0.06469727 C13.34356776 0.07652429 15.69702188 0.09300514 18.05053711 0.11352539 C17.72053711 1.10352539 17.39053711 2.09352539 17.05053711 3.11352539 C11.11053711 2.78352539 5.17053711 2.45352539 -0.94946289 2.11352539 C-0.94946289 4.75352539 -0.94946289 7.39352539 -0.94946289 10.11352539 C-1.60946289 10.11352539 -2.26946289 10.11352539 -2.94946289 10.11352539 C-2.97635505 8.63445647 -2.99580911 7.15525056 -3.01196289 5.67602539 C-3.02356445 4.85231445 -3.03516602 4.02860352 -3.04711914 3.17993164 C-2.91831818 0.45450326 -2.72456284 0.15866271 0 0 Z " fill="#5D243E" transform="translate(120.949462890625,87.886474609375)"/>
<path d="M0 0 C0.66 0.33 1.32 0.66 2 1 C2 3.64 2 6.28 2 9 C-4.93 9 -11.86 9 -19 9 C-19 8.67 -19 8.34 -19 8 C-13.06 7.67 -7.12 7.34 -1 7 C0.06537205 2.52297636 0.06537205 2.52297636 0 0 Z " fill="#BA2D3B" transform="translate(137,79)"/>
<path d="M0 0 C2.97 0 5.94 0 9 0 C9 0.33 9 0.66 9 1 C6.36 1 3.72 1 1 1 C1.66 2.65 2.32 4.3 3 6 C2.01 6.66 1.02 7.32 0 8 C0 5.36 0 2.72 0 0 Z " fill="#462541" transform="translate(88,120)"/>
</svg>
